2.5Hzhigh3min_grf.mot
version=1
nRows=27
nColumns 19
inDegrees=yes
endheader
time	1_ground_force_vx	1_ground_force_vy	1_ground_force_vz	1_ground_force_px	1_ground_force_py	1_ground_force_pz	1_ground_torque_x	1_ground_torque_y	1_ground_torque_z	2_ground_force_vx	2_ground_force_vy	2_ground_force_vz	2_ground_force_px	2_ground_force_py	2_ground_force_pz	2_ground_torque_x	2_ground_torque_y	2_ground_torque_z
            0.005000	            3.340812	            8.300142	           -1.669418	           -0.233013	            0.005581	           -0.255695	            1.231623	           -0.322366	            0.269547	            0.586548	            6.441198	            1.759078	           -0.232311	            0.006130	           -0.833667	           -1.089868	            0.099575	            0.132786
            0.005500	            3.295783	            7.577891	           -1.397261	           -0.233013	            0.005581	           -0.255695	            1.126447	           -0.340804	            0.249002	            0.493430	            6.257381	            1.570748	           -0.232311	            0.006130	           -0.833667	           -1.071285	            0.137992	           -0.017889
            0.006000	            3.249353	            8.299731	           -1.577479	           -0.233013	            0.005581	           -0.255695	            1.096022	           -0.340434	            0.153108	            0.261819	            5.520109	            1.521292	           -0.232311	            0.006130	           -0.833667	           -0.939397	            0.043536	            0.094819
            0.006500	            3.295834	            6.676759	           -1.446982	           -0.233013	            0.005581	           -0.255695	            1.016305	           -0.359233	            0.230430	            0.544001	            5.154836	            0.956721	           -0.232311	            0.006130	           -0.833667	           -1.070876	            0.024559	           -0.018294
            0.007000	            3.066553	            7.037246	           -1.444867	           -0.233013	            0.005581	           -0.255695	            0.940769	           -0.331300	            0.145759	            0.592118	            4.787210	            0.814602	           -0.232311	            0.006130	           -0.833667	           -0.939317	           -0.002988	           -0.112702
            0.007500	            2.930588	            5.953266	           -0.898892	           -0.233013	            0.005581	           -0.255695	            0.861949	           -0.322600	            0.252955	            0.454145	            4.050779	            0.624321	           -0.232311	            0.006130	           -0.833667	           -0.977036	            0.062306	            0.094903
            0.008000	            3.067596	            6.314610	           -1.081111	           -0.233013	            0.005581	           -0.255695	            0.907140	           -0.304128	            0.277571	            0.452898	            4.418406	            0.813348	           -0.232311	            0.006130	           -0.833667	           -0.770328	            0.034963	            0.019313
            0.008500	            3.067727	            5.593548	           -1.084203	           -0.233013	            0.005581	           -0.255695	            0.813323	           -0.303421	            0.108650	            0.738855	            3.128709	            1.277910	           -0.232311	            0.006130	           -0.833667	           -0.770507	            0.082293	            0.000631
            0.009000	            3.159593	            5.232838	           -1.040121	           -0.233013	            0.005581	           -0.255695	            0.699261	           -0.322369	            0.225563	            0.832637	            3.128378	            1.465583	           -0.232311	            0.006130	           -0.833667	           -0.733045	            0.101671	           -0.093568
            0.009500	            3.068120	            4.691826	           -0.996356	           -0.233013	            0.005581	           -0.255695	            0.641007	           -0.358831	            0.090074	            0.506682	            2.574749	            1.463751	           -0.232311	            0.006130	           -0.833667	           -0.657795	            0.091884	            0.076018
            0.010000	            3.114418	            4.691049	           -0.813046	           -0.233013	            0.005581	           -0.255695	            0.652046	           -0.303502	            0.129835	            0.458379	            2.943881	            1.183516	           -0.232311	            0.006130	           -0.833667	           -0.695339	            0.073179	           -0.018285
            0.010500	            2.702044	            4.149975	           -0.768485	           -0.233013	            0.005581	           -0.255695	            0.612852	           -0.312941	            0.112318	            0.600032	            2.577932	            0.665933	           -0.232311	            0.006130	           -0.833667	           -0.657683	            0.045091	           -0.056102
            0.011000	            2.793942	            3.608999	           -0.725176	           -0.233013	            0.005581	           -0.255695	            0.648840	           -0.285241	            0.135074	            0.414606	            2.024978	            0.617114	           -0.232311	            0.006130	           -0.833667	           -0.638958	            0.073181	            0.038242
            0.011500	            2.611107	            3.788247	           -0.494668	           -0.233013	            0.005581	           -0.255695	            0.582286	           -0.284765	           -0.004170	            0.316192	            3.314180	            0.480969	           -0.232311	            0.006130	           -0.833667	           -0.526252	            0.055288	           -0.131525
            0.012000	            2.611269	            4.148385	           -0.401410	           -0.233013	            0.005581	           -0.255695	            0.522159	           -0.313068	            0.127432	            0.178444	            2.575908	            0.806897	           -0.232311	            0.006130	           -0.833667	           -0.620120	            0.045294	           -0.074969
            0.012500	            2.564239	            3.790007	           -0.907258	           -0.233013	            0.005581	           -0.255695	            0.487436	           -0.303629	            0.069222	            0.227309	            2.023465	            0.851834	           -0.232311	            0.006130	           -0.833667	           -0.563713	            0.026727	           -0.112760
            0.013000	            2.702352	            4.329651	           -0.630144	           -0.233013	            0.005581	           -0.255695	            0.456774	           -0.239180	            0.150612	            0.509737	            1.656183	            0.850400	           -0.232311	            0.006130	           -0.833667	           -0.432095	           -0.010475	           -0.150652
            0.013500	            2.656219	            3.429100	           -0.817319	           -0.233013	            0.005581	           -0.255695	            0.427637	           -0.303917	            0.148484	            1.069839	            2.211495	            0.617492	           -0.232311	            0.006130	           -0.833667	           -0.470009	            0.102284	            0.000571
            0.014000	            2.382302	            2.165615	           -0.455200	           -0.233013	            0.005581	           -0.255695	            0.450167	           -0.229837	            0.080668	            0.837961	            1.476399	           -0.042030	           -0.232311	            0.006130	           -0.833667	           -0.357219	            0.074535	           -0.056129
            0.014500	            1.878206	            3.066256	           -0.312516	           -0.233013	            0.005581	           -0.255695	            0.312118	           -0.192876	            0.003241	            0.835138	            2.214331	           -0.414827	           -0.232311	            0.006130	           -0.833667	           -0.507382	            0.036316	           -0.093900
            0.015000	            2.061335	            2.526084	           -0.452858	           -0.233013	            0.005581	           -0.255695	            0.374790	           -0.100592	            0.067713	            0.464244	            1.108757	           -0.606322	           -0.232311	            0.006130	           -0.833667	           -0.413552	            0.083313	            0.075880
            0.015500	            2.153461	            1.984715	           -0.317836	           -0.233013	            0.005581	           -0.255695	            0.294357	           -0.230210	            0.127680	            0.279626	            0.370483	           -0.327302	           -0.232311	            0.006130	           -0.833667	           -0.282002	            0.055833	           -0.037378
            0.016000	            2.107520	            2.525503	           -0.315404	           -0.233013	            0.005581	           -0.255695	            0.331448	           -0.193089	            0.088177	            0.044212	            0.736595	            0.049536	           -0.232311	            0.006130	           -0.833667	           -0.263089	            0.027341	            0.019063
            0.016500	            1.786310	            2.345765	           -0.452948	           -0.233013	            0.005581	           -0.255695	            0.281080	           -0.193251	            0.074625	            0.184262	            0.919912	            0.425559	           -0.232311	            0.006130	           -0.833667	           -0.225568	            0.027880	           -0.094054
            0.017000	            1.924636	            2.344416	           -0.132298	           -0.233013	            0.005581	           -0.255695	            0.248684	           -0.202507	            0.099328	            0.185776	            0.550109	            0.846597	           -0.232311	            0.006130	           -0.833667	           -0.244431	            0.055969	           -0.037394
            0.017500	            1.970317	            1.984286	           -0.225669	           -0.233013	            0.005581	           -0.255695	            0.196410	           -0.137634	            0.064107	            0.748392	            0.369999	            0.282564	           -0.232311	            0.006130	           -0.833667	           -0.263489	            0.131523	           -0.037116
            0.018000	            1.604112	            0.902032	           -0.091829	           -0.233013	            0.005581	           -0.255695	            0.266052	           -0.118895	           -0.045575	            0.606993	            0.555146	           -0.139072	           -0.232311	            0.006130	           -0.833667	           -0.206860	            0.056105	           -0.037410
